<?xml version="1.0" standalone="no"?>
<!DOCTYPE svg PUBLIC "-//W3C//DTD SVG 20010904//EN"
 "http://www.w3.org/TR/2001/REC-SVG-20010904/DTD/svg10.dtd">
<svg version="1.0" xmlns="http://www.w3.org/2000/svg"
 width="512.000000pt" height="512.000000pt" viewBox="0 0 512.000000 512.000000"
 preserveAspectRatio="xMidYMid meet">
<metadata>
Created by potrace 1.14, written by Peter Selinger 2001-2017
</metadata>
<g transform="translate(0.000000,512.000000) scale(0.100000,-0.100000)"
fill="#000000" stroke="none">
<path d="M2520 5014 c-334 -29 -603 -97 -866 -219 l-90 -42 -38 33 c-54 47
-123 68 -205 62 -113 -8 -199 -67 -251 -170 -33 -67 -39 -147 -17 -222 l12
-38 -122 -123 c-109 -109 -123 -128 -123 -158 0 -41 34 -77 74 -77 22 0 52 25
146 120 l118 120 57 -26 c137 -63 300 -14 385 115 l16 23 134 -45 c177 -59
353 -135 503 -217 l122 -66 -3 -56 c-2 -33 3 -80 12 -111 l16 -55 -169 -168
c-92 -93 -211 -223 -263 -289 l-95 -120 -78 3 c-70 3 -83 1 -142 -28 -48 -24
-76 -46 -106 -85 l-40 -53 -136 -6 c-263 -13 -464 -37 -778 -93 -23 -4 -33 -2
-33 7 0 6 -25 36 -55 65 l-55 54 46 139 c40 124 122 306 214 473 25 46 29 61
21 82 -14 36 -62 60 -95 47 -62 -23 -243 -394 -306 -626 l-23 -82 -56 -11
c-160 -32 -263 -167 -248 -326 11 -114 80 -209 182 -252 l42 -17 6 -146 c24
-599 308 -1225 745 -1642 79 -76 81 -78 70 -109 -16 -46 -5 -157 21 -207 45
-88 138 -155 233 -168 69 -10 129 3 190 40 l55 33 59 -30 c211 -107 509 -194
779 -228 129 -16 451 -16 580 0 270 34 575 124 795 236 l45 23 34 -29 c75 -62
205 -78 297 -35 111 51 175 141 182 254 3 34 -1 82 -8 105 l-11 43 103 105
c381 387 611 846 694 1389 22 142 25 518 6 655 -47 327 -143 630 -277 867 -40
72 -44 83 -31 97 53 59 72 191 40 284 -21 62 -92 139 -156 171 -58 29 -150 35
-219 15 l-38 -12 -79 72 -80 72 5 83 c4 62 1 96 -11 134 -35 103 -144 189
-256 199 -79 7 -116 -1 -185 -42 l-58 -36 -111 47 c-221 93 -424 150 -646 180
-106 14 -398 25 -480 18z m325 -154 c270 -22 482 -73 728 -177 97 -41 108 -48
103 -67 -3 -11 -6 -31 -6 -42 0 -18 -19 -28 -137 -69 -173 -59 -397 -158 -533
-234 l-105 -58 -41 29 c-108 77 -262 75 -367 -5 l-33 -25 -89 50 c-176 99
-393 192 -597 259 -124 40 -128 42 -128 70 0 25 8 33 68 63 205 103 510 183
777 205 144 12 224 12 360 1z m-1435 -182 c139 -72 86 -278 -71 -278 -62 0
-108 32 -133 92 -23 56 -16 104 21 149 51 60 112 73 183 37z m2634 -1 c99 -56
101 -197 4 -258 -25 -15 -45 -19 -84 -16 -66 4 -107 34 -129 92 -21 55 -14
103 22 146 51 60 121 74 187 36z m-321 -299 c91 -139 293 -175 429 -76 16 11
26 5 83 -52 l65 -65 -23 -45 c-18 -36 -22 -62 -22 -130 0 -73 4 -92 27 -136
15 -28 48 -70 75 -93 l47 -42 -38 -117 c-85 -260 -206 -536 -343 -784 -66
-121 -80 -139 -97 -134 -12 3 -41 6 -66 6 l-45 0 -55 107 c-171 333 -370 604
-647 881 l-162 163 15 60 c10 40 13 78 9 110 -7 47 -6 49 27 69 55 34 242 128
330 166 88 39 345 133 364 133 7 1 18 -9 27 -21z m914 -246 c43 -31 66 -85 60
-140 -16 -146 -208 -182 -274 -52 -13 24 -23 56 -23 70 0 43 42 112 80 132 44
24 116 20 157 -10z m-1880 -8 c57 -37 81 -131 49 -192 -63 -121 -240 -104
-276 26 -18 68 20 149 84 178 37 17 109 11 143 -12z m-201 -406 c68 -30 170
-29 241 2 l52 22 86 -78 c266 -243 540 -610 701 -936 36 -73 37 -79 22 -95
-16 -15 -26 -13 -155 47 -283 129 -535 220 -809 290 -165 43 -432 95 -539 106
-37 4 -71 12 -76 18 -5 6 -24 34 -42 62 l-34 52 91 113 c87 110 386 419 404
419 5 0 31 -10 58 -22z m2176 -136 c260 -522 309 -1180 127 -1730 l-31 -93
-90 83 c-193 176 -319 280 -483 397 l-99 71 2 83 c3 74 0 88 -27 142 -17 33
-36 67 -42 76 -10 13 -1 34 45 115 134 233 275 550 367 823 26 79 51 147 56
152 8 8 65 17 93 15 9 -1 42 -56 82 -134z m-2872 -464 c55 -38 74 -71 73 -129
-2 -147 -189 -202 -270 -80 -29 44 -31 113 -3 159 43 70 136 93 200 50z
m-1479 -121 c70 -46 89 -147 40 -215 -28 -40 -97 -67 -148 -57 -50 9 -109 69
-119 119 -9 53 20 123 65 153 46 31 116 31 162 0z m1114 -84 c9 -31 29 -75 44
-97 l28 -40 -47 -100 c-127 -271 -231 -617 -274 -916 -32 -218 -39 -344 -34
-610 l5 -265 -34 -22 -34 -23 -29 22 c-64 47 -221 235 -317 378 -242 361 -422
901 -423 1265 l0 70 51 23 c94 44 158 129 167 224 l4 46 62 11 c161 28 633 82
788 90 24 1 28 -4 43 -56z m845 -19 c379 -70 789 -202 1123 -362 l98 -47 3
-85 c2 -66 8 -96 26 -132 l23 -47 -39 -48 c-338 -415 -743 -764 -1214 -1046
-148 -89 -459 -241 -627 -307 l-132 -52 -32 36 c-37 43 -98 80 -155 95 l-41
11 -6 82 c-10 126 -8 409 3 538 33 361 125 716 270 1046 l52 119 92 0 c82 0
96 3 145 30 63 34 125 108 143 167 l12 40 60 -7 c34 -3 122 -18 196 -31z
m1562 -344 c20 -6 50 -26 67 -45 81 -92 30 -231 -88 -243 -61 -5 -102 10 -136
50 -76 90 -11 237 110 247 6 1 27 -4 47 -9z m254 -426 c188 -135 412 -323 544
-458 l65 -67 -50 -96 c-109 -210 -264 -421 -433 -586 l-79 -79 -43 22 c-35 18
-41 25 -36 43 3 12 9 112 13 223 l6 200 -28 22 c-34 27 -65 28 -97 3 -24 -20
-25 -23 -31 -208 -9 -251 -7 -245 -70 -267 -37 -13 -69 -35 -108 -75 -69 -70
-92 -129 -88 -228 l3 -68 -90 -42 c-128 -60 -368 -137 -519 -167 -474 -92
-966 -34 -1394 164 l-89 42 5 57 c3 31 8 59 12 62 3 4 71 32 151 64 479 190
947 477 1340 822 154 135 386 372 503 514 l88 107 46 -14 c26 -8 59 -14 74
-14 26 0 28 -4 48 -87 11 -49 27 -131 36 -183 21 -120 30 -145 61 -159 35 -16
48 -14 78 10 20 16 26 29 26 60 0 41 -40 256 -65 349 -14 54 -14 55 8 72 12
10 25 18 28 18 4 0 42 -25 85 -56z m-2726 -1402 c112 -82 51 -266 -89 -266
-144 0 -205 192 -86 270 55 36 122 34 175 -4z m2654 4 c42 -17 73 -61 82 -114
13 -83 -62 -172 -145 -172 -52 0 -108 35 -132 82 -65 128 60 260 195 204z"/>
</g>
</svg>
